<svg width="26" height="26" viewBox="0 0 26 26" fill="none" xmlns="http://www.w3.org/2000/svg">
<path d="M8.65875 1.60747C8.5781 1.55759 8.5133 1.48579 8.47192 1.40047C8.43053 1.31515 8.41426 1.21982 8.425 1.1256C8.43575 1.03138 8.47307 0.942154 8.5326 0.868342C8.59214 0.79453 8.67144 0.739171 8.76125 0.708724C10.585 0.0803353 12.5258 -0.134076 14.4427 0.0810557C16.3597 0.296187 18.2047 0.935462 19.8438 1.95247C19.9031 1.98992 19.954 2.03946 19.993 2.09787C20.0319 2.15627 20.0582 2.22224 20.07 2.29146C20.0818 2.36068 20.0789 2.4316 20.0614 2.49962C20.044 2.56764 20.0124 2.63122 19.9688 2.68622C18.5214 4.53569 16.7465 6.1034 14.7325 7.31122C13.1056 5.02655 11.041 3.08779 8.65875 1.60747ZM12.9475 8.24997C11.1219 5.75885 8.72007 3.74692 5.9475 2.38622C5.86811 2.34767 5.77981 2.33115 5.69185 2.33841C5.60389 2.34567 5.5195 2.37643 5.4475 2.42747C3.20298 4.03298 1.52513 6.30862 0.655 8.92747C0.633139 8.99444 0.625675 9.06526 0.633096 9.13531C0.640517 9.20536 0.662655 9.27305 0.69806 9.33395C0.733465 9.39485 0.781339 9.44758 0.838543 9.48868C0.895747 9.52979 0.960991 9.55834 1.03 9.57247C2.3347 9.85371 3.66534 9.99699 5 9.99997C7.7449 10.0015 10.4571 9.40425 12.9475 8.24997ZM25.9225 11.5862C25.6046 8.68688 24.3193 5.97917 22.2738 3.89997C22.2239 3.84931 22.1638 3.80986 22.0975 3.78427C22.0311 3.75867 21.9601 3.74751 21.8891 3.75153C21.8182 3.75555 21.7489 3.77466 21.6858 3.80759C21.6228 3.84052 21.5676 3.8865 21.5238 3.94247C19.9417 5.95795 18.0065 7.66909 15.8125 8.99247C16.4979 10.1799 17.0652 11.4318 17.5063 12.73C19.2971 12.2445 21.1445 11.999 23 12C23.7935 12 24.5865 12.0447 25.375 12.1337C25.4484 12.141 25.5225 12.132 25.592 12.1074C25.6615 12.0827 25.7246 12.0429 25.777 11.991C25.8293 11.939 25.8695 11.8761 25.8946 11.8068C25.9198 11.7374 25.9293 11.6634 25.9225 11.59V11.5862ZM18.0588 14.6487C18.4292 16.2248 18.6159 17.8385 18.615 19.4575C18.6142 21.0071 18.4419 22.552 18.1012 24.0637C18.0795 24.1563 18.0845 24.2532 18.1159 24.343C18.1472 24.4328 18.2036 24.5118 18.2782 24.5707C18.3529 24.6297 18.4428 24.6661 18.5375 24.6757C18.6321 24.6853 18.7275 24.6677 18.8125 24.625C20.7084 23.6739 22.3434 22.2745 23.5757 20.5481C24.808 18.8218 25.6003 16.8207 25.8838 14.7187C25.8923 14.6532 25.8878 14.5866 25.8705 14.5228C25.8531 14.459 25.8233 14.3993 25.7827 14.3471C25.7422 14.2949 25.6916 14.2512 25.6341 14.2187C25.5766 14.1862 25.5131 14.1653 25.4475 14.1575C22.9756 13.8393 20.4653 14.0092 18.0588 14.6575V14.6487ZM15.6038 13.3425C15.2007 12.1605 14.6819 11.0212 14.055 9.94122C11.2295 11.2986 8.13462 12.0023 5 12C3.53475 12.0001 2.07349 11.8471 0.64 11.5437C0.570837 11.5291 0.499366 11.5294 0.430302 11.5444C0.361239 11.5595 0.296152 11.589 0.239335 11.6311C0.182519 11.6731 0.135264 11.7267 0.100689 11.7884C0.0661133 11.85 0.0450027 11.9183 0.0387496 11.9887C0.0129163 12.3221 -0.000417005 12.6591 -0.00125034 13C-0.00190696 14.78 0.364004 16.5412 1.07369 18.1737C1.78337 19.8062 2.82162 21.275 4.12375 22.4887C4.17868 22.5391 4.24416 22.5765 4.31541 22.5983C4.38666 22.6201 4.46187 22.6256 4.53556 22.6146C4.60924 22.6036 4.67954 22.5762 4.74129 22.5346C4.80305 22.4929 4.85471 22.4379 4.8925 22.3737C7.33227 18.2339 11.1105 15.0496 15.6038 13.3462V13.3425ZM6.46125 23.6562C6.42839 23.7136 6.40724 23.7769 6.39901 23.8425C6.39078 23.9081 6.39564 23.9747 6.41331 24.0384C6.43098 24.1021 6.46111 24.1616 6.50195 24.2136C6.54279 24.2656 6.59354 24.309 6.65125 24.3412C9.26541 25.8069 12.3061 26.3232 15.2575 25.8025C15.3453 25.7872 15.4273 25.7482 15.4947 25.6899C15.5621 25.6315 15.6123 25.5559 15.64 25.4712C16.2847 23.533 16.6139 21.5038 16.615 19.4612C16.6153 18.054 16.4585 16.6512 16.1475 15.2787C12.0516 16.8746 8.63084 19.8332 6.46125 23.6562Z" fill="#29695D"/>
</svg>
