<svg width="28" height="22" viewBox="0 0 28 22" fill="none" xmlns="http://www.w3.org/2000/svg">
<path d="M9.5 10H6V7H9.5C9.89782 7 10.2794 7.15804 10.5607 7.43934C10.842 7.72064 11 8.10218 11 8.5C11 8.89782 10.842 9.27936 10.5607 9.56066C10.2794 9.84196 9.89782 10 9.5 10ZM10 12H6V16H10C10.5304 16 11.0391 15.7893 11.4142 15.4142C11.7893 15.0391 12 14.5304 12 14C12 13.4696 11.7893 12.9609 11.4142 12.5858C11.0391 12.2107 10.5304 12 10 12ZM20 10C19.3798 10.0002 18.7749 10.1926 18.2685 10.5508C17.7621 10.9089 17.3792 11.4152 17.1725 12H22.8275C22.6208 11.4152 22.2379 10.9089 21.7315 10.5508C21.2251 10.1926 20.6202 10.0002 20 10ZM28 2V20C28 20.5304 27.7893 21.0391 27.4142 21.4142C27.0391 21.7893 26.5304 22 26 22H2C1.46957 22 0.960859 21.7893 0.585786 21.4142C0.210714 21.0391 0 20.5304 0 20V2C0 1.46957 0.210714 0.960859 0.585786 0.585786C0.960859 0.210714 1.46957 0 2 0H26C26.5304 0 27.0391 0.210714 27.4142 0.585786C27.7893 0.960859 28 1.46957 28 2ZM16 6C16 6.26522 16.1054 6.51957 16.2929 6.70711C16.4804 6.89464 16.7348 7 17 7H23C23.2652 7 23.5196 6.89464 23.7071 6.70711C23.8946 6.51957 24 6.26522 24 6C24 5.73478 23.8946 5.48043 23.7071 5.29289C23.5196 5.10536 23.2652 5 23 5H17C16.7348 5 16.4804 5.10536 16.2929 5.29289C16.1054 5.48043 16 5.73478 16 6ZM14 14C13.9997 13.3449 13.8385 12.6998 13.5305 12.1216C13.2225 11.5433 12.7772 11.0496 12.2338 10.6838C12.6448 10.1689 12.9022 9.54838 12.9764 8.8937C13.0505 8.23901 12.9383 7.5767 12.6527 6.98294C12.3671 6.38918 11.9197 5.88809 11.362 5.5373C10.8043 5.18651 10.1589 5.00027 9.5 5H5C4.73478 5 4.48043 5.10536 4.29289 5.29289C4.10536 5.48043 4 5.73478 4 6V17C4 17.2652 4.10536 17.5196 4.29289 17.7071C4.48043 17.8946 4.73478 18 5 18H10C11.0609 18 12.0783 17.5786 12.8284 16.8284C13.5786 16.0783 14 15.0609 14 14ZM25 13C24.9999 11.8567 24.608 10.7479 23.8896 9.85845C23.1712 8.96903 22.1696 8.35269 21.0519 8.11217C19.9341 7.87164 18.7677 8.02146 17.747 8.53665C16.7263 9.05184 15.913 9.90128 15.4427 10.9434C14.9723 11.9855 14.8733 13.1573 15.1622 14.2636C15.4511 15.3698 16.1104 16.3437 17.0302 17.0228C17.95 17.7018 19.0748 18.0452 20.217 17.9956C21.3593 17.9459 22.4501 17.5063 23.3075 16.75C23.5064 16.5745 23.6274 16.3271 23.644 16.0623C23.6605 15.7975 23.5712 15.537 23.3956 15.3381C23.3087 15.2396 23.2032 15.1592 23.0852 15.1015C22.9673 15.0438 22.839 15.0098 22.7079 15.0017C22.4432 14.9851 22.1827 15.0745 21.9837 15.25C21.6156 15.5743 21.1735 15.8034 20.6962 15.9172C20.219 16.031 19.7211 16.026 19.2462 15.9026C18.7713 15.7792 18.3339 15.5413 17.9724 15.2095C17.6109 14.8778 17.3362 14.4625 17.1725 14H24C24.2652 14 24.5196 13.8946 24.7071 13.7071C24.8946 13.5196 25 13.2652 25 13Z" fill="#29695D"/>
</svg>
