<svg width="25" height="22" viewBox="0 0 25 22" fill="none" xmlns="http://www.w3.org/2000/svg">
<path d="M18.75 0.375H6.25C2.5 0.375 0 2.25 0 6.625V15.375C0 19.75 2.5 21.625 6.25 21.625H18.75C22.5 21.625 25 19.75 25 15.375V6.625C25 2.25 22.5 0.375 18.75 0.375ZM19.3375 7.9875L15.425 11.1125C14.6 11.775 13.55 12.1 12.5 12.1C11.45 12.1 10.3875 11.775 9.575 11.1125L5.6625 7.9875C5.2625 7.6625 5.2 7.0625 5.5125 6.6625C5.8375 6.2625 6.425 6.1875 6.825 6.5125L10.7375 9.6375C11.6875 10.4 13.3 10.4 14.25 9.6375L18.1625 6.5125C18.5625 6.1875 19.1625 6.25 19.475 6.6625C19.8 7.0625 19.7375 7.6625 19.3375 7.9875Z" fill="#29695D"/>
</svg>
