<svg width="27" height="26" viewBox="0 0 27 26" fill="none" xmlns="http://www.w3.org/2000/svg">
<path d="M16.5725 15.1538L19.4475 16.5888C19.3112 17.2697 18.9429 17.8823 18.4054 18.322C17.8679 18.7618 17.1945 19.0014 16.5 19C14.1139 18.9974 11.8262 18.0483 10.139 16.3611C8.45171 14.6738 7.50265 12.3862 7.5 10C7.49981 9.30644 7.73995 8.6342 8.17958 8.09772C8.6192 7.56123 9.23114 7.19366 9.91125 7.05754L11.3462 9.93254L10.125 11.75C10.0337 11.8869 9.97767 12.0442 9.96175 12.208C9.94583 12.3717 9.97056 12.5369 10.0337 12.6888C10.7492 14.3893 12.102 15.7421 13.8025 16.4575C13.9549 16.5235 14.1213 16.5505 14.2867 16.5361C14.4521 16.5217 14.6113 16.4664 14.75 16.375L16.5725 15.1538ZM26.5 13C26.5005 15.2445 25.9199 17.4508 24.8147 19.4042C23.7095 21.3577 22.1174 22.9917 20.1934 24.1473C18.2693 25.3029 16.0788 25.9407 13.8352 25.9986C11.5915 26.0564 9.37107 25.5324 7.39 24.4775L3.13375 25.8963C2.78136 26.0138 2.4032 26.0309 2.04166 25.9455C1.68012 25.8602 1.34948 25.6759 1.08681 25.4132C0.824144 25.1506 0.639818 24.8199 0.554497 24.4584C0.469176 24.0968 0.48623 23.7187 0.60375 23.3663L2.0225 19.11C1.09519 17.3666 0.577246 15.4348 0.507997 13.4613C0.438747 11.4877 0.820007 9.52438 1.62284 7.72021C2.42567 5.91604 3.62897 4.31847 5.1414 3.04878C6.65383 1.77909 8.43564 0.870635 10.3516 0.392383C12.2675 -0.0858696 14.2672 -0.121353 16.199 0.288624C18.1307 0.698602 19.9436 1.54327 21.5001 2.7585C23.0566 3.97374 24.3158 5.52761 25.1822 7.30216C26.0485 9.07671 26.4992 11.0253 26.5 13ZM21.5 16C21.5001 15.8143 21.4485 15.6321 21.3509 15.474C21.2533 15.3159 21.1136 15.1882 20.9475 15.105L16.9475 13.105C16.79 13.0266 16.6147 12.991 16.4391 13.002C16.2635 13.013 16.094 13.0701 15.9475 13.1675L14.1112 14.3925C13.2683 13.9291 12.5746 13.2355 12.1112 12.3925L13.3363 10.5563C13.4337 10.4098 13.4908 10.2403 13.5018 10.0647C13.5127 9.8891 13.4772 9.71374 13.3988 9.55629L11.3988 5.55629C11.3159 5.38888 11.1877 5.24803 11.0289 5.14972C10.87 5.05141 10.6868 4.99955 10.5 5.00004C9.17392 5.00004 7.90215 5.52682 6.96447 6.46451C6.02678 7.40219 5.5 8.67396 5.5 10C5.50331 12.9164 6.6633 15.7124 8.72548 17.7746C10.7877 19.8367 13.5836 20.9967 16.5 21C17.1566 21 17.8068 20.8707 18.4134 20.6194C19.02 20.3682 19.5712 19.9999 20.0355 19.5356C20.4998 19.0713 20.8681 18.5201 21.1194 17.9135C21.3707 17.3068 21.5 16.6566 21.5 16Z" fill="#29695D"/>
</svg>
